<svg width="651" height="616" viewBox="0 0 651 616" fill="none" xmlns="http://www.w3.org/2000/svg">
<path d="M635 0H59C50.1634 0 43 7.16344 43 16V600C43 608.837 50.1634 616 59 616H635C643.837 616 651 608.837 651 600V16C651 7.16344 643.837 0 635 0Z" fill="white"/>
<path d="M138.359 383.359C129.067 408.786 121.915 466.241 167.641 492.641" stroke="#07DCA9" stroke-width="48" stroke-linecap="round"/>
<path d="M24.01 99.7158C35.42 124.266 70.989 169.95 121.99 156.284" stroke="#FE1B4E" stroke-width="48" stroke-linecap="round"/>
<path d="M503 228C529.67 223.333 583 200.8 583 148" stroke="#9D02FF" stroke-width="48" stroke-linecap="round"/>
<path d="M387 504H265C260.582 504 257 507.582 257 512C257 516.418 260.582 520 265 520H387C391.418 520 395 516.418 395 512C395 507.582 391.418 504 387 504Z" fill="#333333"/>
<path d="M284 536H265C260.582 536 257 539.582 257 544C257 548.418 260.582 552 265 552H284C288.418 552 292 548.418 292 544C292 539.582 288.418 536 284 536Z" fill="#FFC619"/>
<path d="M328 568H265C260.582 568 257 571.582 257 576C257 580.418 260.582 584 265 584H328C332.418 584 336 580.418 336 576C336 571.582 332.418 568 328 568Z" fill="#333333"/>
<path d="M472 504H427C422.582 504 419 507.582 419 512C419 516.418 422.582 520 427 520H472C476.418 520 480 516.418 480 512C480 507.582 476.418 504 472 504Z" fill="#333333"/>
<path d="M445 536H324C319.582 536 316 539.582 316 544C316 548.418 319.582 552 324 552H445C449.418 552 453 548.418 453 544C453 539.582 449.418 536 445 536Z" fill="#333333"/>
<path d="M393 568H368C363.582 568 360 571.582 360 576C360 580.418 363.582 584 368 584H393C397.418 584 401 580.418 401 576C401 571.582 397.418 568 393 568Z" fill="#FFC619"/>
<path d="M585 504H512C507.582 504 504 507.582 504 512C504 516.418 507.582 520 512 520H585C589.418 520 593 516.418 593 512C593 507.582 589.418 504 585 504Z" fill="#FFC619"/>
<path d="M564 536H485C480.582 536 477 539.582 477 544C477 548.418 480.582 552 485 552H564C568.418 552 572 548.418 572 544C572 539.582 568.418 536 564 536Z" fill="#FFC619"/>
<path d="M542 568H433C428.582 568 425 571.582 425 576C425 580.418 428.582 584 433 584H542C546.418 584 550 580.418 550 576C550 571.582 546.418 568 542 568Z" fill="#333333"/>
<path d="M366 600H265C260.582 600 257 603.582 257 608C257 612.418 260.582 616 265 616H366C370.418 616 374 612.418 374 608C374 603.582 370.418 600 366 600Z" fill="#333333"/>
<path d="M445 600H406C401.582 600 398 603.582 398 608C398 612.418 401.582 616 406 616H445C449.418 616 453 612.418 453 608C453 603.582 449.418 600 445 600Z" fill="#FFC619"/>
</svg>
