<svg width="443" height="338" viewBox="0 0 443 338" fill="none" xmlns="http://www.w3.org/2000/svg">
<g filter="url(#filter0_dd)">
<rect x="32" y="24" width="379" height="274" rx="8" fill="white"/>
</g>
<rect x="64" y="56" width="63.25" height="7.33333" rx="3.66667" fill="#333333"/>
<rect x="64" y="70.6665" width="16.0417" height="7.33333" rx="3.66667" fill="#FFC619"/>
<rect x="64" y="85.3335" width="36.2083" height="7.33333" rx="3.66667" fill="#333333"/>
<rect x="138.25" y="56" width="27.9583" height="7.33333" rx="3.66667" fill="#333333"/>
<rect x="91.042" y="70.6665" width="62.7917" height="7.33333" rx="3.66667" fill="#333333"/>
<rect x="111.208" y="85.3335" width="18.7917" height="7.33333" rx="3.66667" fill="#FFC619"/>
<rect x="177" y="56" width="23" height="7" rx="3.5" fill="#FFC619"/>
<rect x="164.833" y="70.6665" width="43.5417" height="7.33333" rx="3.66667" fill="#FFC619"/>
<rect x="141" y="85.3335" width="57.2917" height="7.33333" rx="3.66667" fill="#333333"/>
<rect x="64" y="100" width="53.625" height="7.33333" rx="3.66667" fill="#333333"/>
<rect x="128.625" y="100" width="25.2083" height="7.33333" rx="3.66667" fill="#FFC619"/>
<rect x="64" y="131" width="40" height="7" rx="3.5" fill="#333333"/>
<rect x="64" y="146" width="49" height="7" rx="3.5" fill="#333333"/>
<rect x="64" y="160" width="21" height="8" rx="4" fill="#333333"/>
<rect x="111" y="131" width="46" height="7" rx="3.5" fill="#333333"/>
<rect x="124" y="146" width="30" height="7" rx="3.5" fill="#FFC619"/>
<rect x="96" y="160" width="34" height="8" rx="4" fill="#FFC619"/>
<rect x="165" y="131" width="53" height="7" rx="3.5" fill="#333333"/>
<rect x="165" y="146" width="29" height="7" rx="3.5" fill="#333333"/>
<rect x="141" y="160" width="74" height="8" rx="4" fill="#333333"/>
<rect x="64" y="175" width="77" height="7" rx="3.5" fill="#FFC619"/>
<rect x="152" y="175" width="48" height="7" rx="3.5" fill="#333333"/>
<rect x="64" y="206" width="86" height="7" rx="3.5" fill="#333333"/>
<rect x="64" y="221" width="34" height="7" rx="3.5" fill="#FFC619"/>
<rect x="109" y="221" width="66" height="7" rx="3.5" fill="#333333"/>
<rect x="161" y="206" width="40" height="7" rx="3.5" fill="#333333"/>
<defs>
<filter id="filter0_dd" x="0" y="0" width="443" height="338" filterUnits="userSpaceOnUse" color-interpolation-filters="sRGB">
<feFlood flood-opacity="0" result="BackgroundImageFix"/>
<feColorMatrix in="SourceAlpha" type="matrix" values="0 0 0 0 0 0 0 0 0 0 0 0 0 0 0 0 0 0 127 0"/>
<feOffset dy="8"/>
<feGaussianBlur stdDeviation="16"/>
<feColorMatrix type="matrix" values="0 0 0 0 0 0 0 0 0 0 0 0 0 0 0 0 0 0 0.25 0"/>
<feBlend mode="normal" in2="BackgroundImageFix" result="effect1_dropShadow"/>
<feColorMatrix in="SourceAlpha" type="matrix" values="0 0 0 0 0 0 0 0 0 0 0 0 0 0 0 0 0 0 127 0"/>
<feOffset dy="2"/>
<feGaussianBlur stdDeviation="4"/>
<feColorMatrix type="matrix" values="0 0 0 0 0 0 0 0 0 0 0 0 0 0 0 0 0 0 0.25 0"/>
<feBlend mode="normal" in2="effect1_dropShadow" result="effect2_dropShadow"/>
<feBlend mode="normal" in="SourceGraphic" in2="effect2_dropShadow" result="shape"/>
</filter>
</defs>
</svg>
