<svg width="32" height="32" viewBox="0 0 32 32" fill="none" xmlns="http://www.w3.org/2000/svg">
<path d="M22 6C23.0609 6 24.0783 5.57857 24.8284 4.82843C25.5786 4.07828 26 3.06087 26 2C26 3.06087 26.4214 4.07828 27.1716 4.82843C27.9217 5.57857 28.9391 6 30 6" stroke="black" stroke-width="2" stroke-miterlimit="10" stroke-linecap="round" stroke-linejoin="round"/>
<path d="M22 6C23.0609 6 24.0783 6.42143 24.8284 7.17157C25.5786 7.92172 26 8.93913 26 10C26 8.93913 26.4214 7.92172 27.1716 7.17157C27.9217 6.42143 28.9391 6 30 6" stroke="black" stroke-width="2" stroke-miterlimit="10" stroke-linecap="round" stroke-linejoin="round"/>
<path d="M2 26C3.06087 26 4.07828 25.5786 4.82843 24.8284C5.57857 24.0783 6 23.0609 6 22C6 23.0609 6.42143 24.0783 7.17157 24.8284C7.92172 25.5786 8.93913 26 10 26" stroke="black" stroke-width="2" stroke-miterlimit="10" stroke-linecap="round" stroke-linejoin="round"/>
<path d="M2 26C3.06087 26 4.07828 26.4214 4.82843 27.1716C5.57857 27.9217 6 28.9391 6 30C6 28.9391 6.42143 27.9217 7.17157 27.1716C7.92172 26.4214 8.93913 26 10 26" stroke="black" stroke-width="2" stroke-miterlimit="10" stroke-linecap="round" stroke-linejoin="round"/>
<path d="M16 23C17.8565 23 19.637 22.2625 20.9497 20.9497C22.2625 19.637 23 17.8565 23 16C23 17.8565 23.7375 19.637 25.0503 20.9497C26.363 22.2625 28.1435 23 30 23" stroke="black" stroke-width="2" stroke-miterlimit="10" stroke-linecap="round" stroke-linejoin="round"/>
<path d="M16 23C17.8565 23 19.637 23.7375 20.9497 25.0503C22.2625 26.363 23 28.1435 23 30C23 28.1435 23.7375 26.363 25.0503 25.0503C26.363 23.7375 28.1435 23 30 23" stroke="black" stroke-width="2" stroke-miterlimit="10" stroke-linecap="round" stroke-linejoin="round"/>
<path d="M2 9C3.85652 9 5.63699 8.2625 6.94975 6.94975C8.2625 5.63699 9 3.85652 9 2C9 3.85652 9.7375 5.63699 11.0503 6.94975C12.363 8.2625 14.1435 9 16 9" stroke="black" stroke-width="2" stroke-miterlimit="10" stroke-linecap="round" stroke-linejoin="round"/>
<path d="M2 9C3.85652 9 5.63699 9.7375 6.94975 11.0503C8.2625 12.363 9 14.1435 9 16C9 14.1435 9.7375 12.363 11.0503 11.0503C12.363 9.7375 14.1435 9 16 9" stroke="black" stroke-width="2" stroke-miterlimit="10" stroke-linecap="round" stroke-linejoin="round"/>
</svg>
