<svg width="32" height="32" viewBox="0 0 32 32" fill="none" xmlns="http://www.w3.org/2000/svg">
<path d="M20 6.59999C18.8 6.09999 17.4 5.79999 16 5.79999C10.4 5.79999 5.8 10.4 5.8 16" stroke="black" stroke-width="2" stroke-miterlimit="10" stroke-linecap="round"/>
<path d="M26.2 16C26.2 14.6 25.9 13.2 25.4 12" stroke="black" stroke-width="2" stroke-miterlimit="10" stroke-linecap="round"/>
<path d="M18.1001 13.9L23.6001 8.39999" stroke="black" stroke-width="2" stroke-miterlimit="10" stroke-linecap="round"/>
<path d="M16 31C7.71573 31 1 24.2843 1 16C1 7.71573 7.71573 1 16 1C24.2843 1 31 7.71573 31 16C31 24.2843 24.2843 31 16 31Z" stroke="black" stroke-width="2" stroke-miterlimit="10" stroke-linecap="square"/>
<path d="M16 19C14.3431 19 13 17.6569 13 16C13 14.3431 14.3431 13 16 13C17.6569 13 19 14.3431 19 16C19 17.6569 17.6569 19 16 19Z" stroke="black" stroke-width="2" stroke-miterlimit="10" stroke-linecap="square"/>
</svg>
