<svg width="37" height="32" viewBox="0 0 37 32" fill="none" xmlns="http://www.w3.org/2000/svg">
<path fill-rule="evenodd" clip-rule="evenodd" d="M0.880988 10.5273C1.95813 9.57824 3.60068 9.68207 4.54974 10.7592L9.13308 15.9611C10.2991 17.2845 11.1017 18.7797 11.7195 20.1747C12.4106 21.7351 13.4079 23.4792 14.6737 24.7945C15.9261 26.0958 17.2578 26.8012 18.7155 26.8012C20.5433 26.8012 21.655 26.3817 22.4509 25.8717C23.3129 25.3194 23.9849 24.5543 24.8443 23.4841C24.914 23.3973 24.9858 23.3073 25.0597 23.2145C25.8179 22.2635 26.8043 21.0263 28.1042 20.0695C29.6518 18.9304 31.5585 18.2233 34.0518 18.2233C35.4874 18.2233 36.6512 19.3871 36.6512 20.8227C36.6512 22.2583 35.4874 23.422 34.0518 23.422C32.6461 23.422 31.8235 23.7872 31.186 24.2564C30.4631 24.7884 29.8916 25.5007 29.0276 26.5774C28.9851 26.6305 28.9418 26.6844 28.8978 26.7392C28.0352 27.8134 26.9038 29.1928 25.2558 30.2489C23.5417 31.3473 21.4367 32 18.7155 32C15.3822 32 12.7853 30.3294 10.9279 28.3995C9.08396 26.4835 7.79036 24.141 6.96611 22.28C6.45592 21.128 5.90793 20.1646 5.23242 19.3979L0.649076 14.196C-0.299979 13.1189 -0.196149 11.4764 0.880988 10.5273Z" fill="#06DFAB"/>
<path fill-rule="evenodd" clip-rule="evenodd" d="M25.8471 0.15895C27.1953 0.652193 27.8884 2.14498 27.3951 3.49318C27.2597 3.86346 27.0961 4.35822 26.9052 4.93552C26.3352 6.65985 25.5217 9.12047 24.4865 11.1994C23.7733 12.6319 22.8498 14.1258 21.6306 15.2887C20.3774 16.4841 18.7101 17.4165 16.636 17.4165C13.0327 17.4165 10.1035 15.0728 8.0935 12.8852C6.00166 10.6085 4.38956 7.93566 3.44355 6.22383C2.74917 4.96734 3.20485 3.38585 4.46135 2.69147C5.71784 1.99709 7.29933 2.45278 7.99371 3.70927C8.86726 5.28998 10.2444 7.54239 11.9217 9.36786C13.6808 11.2824 15.3005 12.2178 16.636 12.2178C17.0313 12.2178 17.476 12.0671 18.0423 11.5269C18.6428 10.9542 19.2464 10.0599 19.8328 8.88218C20.6878 7.16496 21.289 5.34515 21.8343 3.69468C22.0655 2.99475 22.2867 2.32527 22.5129 1.70698C23.0061 0.358784 24.4989 -0.334294 25.8471 0.15895Z" fill="#9D04FF"/>
<path fill-rule="evenodd" clip-rule="evenodd" d="M30.8433 4.85956C32.1795 5.38449 32.8372 6.89321 32.3122 8.2294L29.4529 15.5076C28.928 16.8438 27.4193 17.5015 26.0831 16.9765C24.7469 16.4516 24.0892 14.9429 24.6142 13.6067L27.4735 6.32846C27.9984 4.99228 29.5071 4.33463 30.8433 4.85956Z" fill="#FFC619"/>
<path d="M22.6146 21.5755C22.6146 23.2983 21.2181 24.6948 19.4953 24.6948C17.7726 24.6948 16.3761 23.2983 16.3761 21.5755C16.3761 19.8528 17.7726 18.4563 19.4953 18.4563C21.2181 18.4563 22.6146 19.8528 22.6146 21.5755Z" fill="#FE1B4E"/>
</svg>
