<svg width="179" height="48" viewBox="0 0 179 48" fill="none" xmlns="http://www.w3.org/2000/svg">
<path d="M58.0039 28.3061H63.0536V32.8508C63.1454 32.8814 63.2372 32.912 63.329 32.9426C64.0329 33.2486 64.798 33.5088 65.6244 33.723C66.4813 33.9066 67.3841 33.9984 68.3328 33.9984C70.0467 33.9984 71.3779 33.6618 72.3267 32.9885C73.2754 32.2846 73.7498 31.3512 73.7498 30.1882C73.7498 29.1477 73.3519 28.3061 72.5562 27.6634C71.7911 27.0207 70.8271 26.4545 69.6641 25.9648C68.5318 25.4752 67.277 24.9855 65.8998 24.4958C64.5532 24.0062 63.2984 23.3941 62.1355 22.6596C61.0031 21.8945 60.0391 20.9458 59.2434 19.8134C58.4783 18.681 58.0957 17.212 58.0957 15.4064C58.0957 14.0292 58.3559 12.7744 58.8761 11.6421C59.427 10.4791 60.1768 9.48448 61.1255 8.65816C62.1049 7.83185 63.2678 7.18916 64.6144 6.7301C65.961 6.27103 67.4606 6.0415 69.1132 6.0415C70.9801 6.0415 72.8163 6.20983 74.622 6.54647C76.4276 6.88312 77.866 7.34218 78.9372 7.92366V17.2426H73.8875V12.147C73.7957 12.147 73.7039 12.1317 73.612 12.1011C72.9388 11.9175 72.2043 11.7798 71.4085 11.688C70.6434 11.5656 69.8783 11.5044 69.1132 11.5044C67.6442 11.5044 66.4813 11.7951 65.6244 12.3766C64.798 12.9581 64.3849 13.7385 64.3849 14.7178C64.3849 15.7277 64.7674 16.554 65.5325 17.1967C66.3282 17.8394 67.2923 18.4209 68.4246 18.9412C69.5876 19.4614 70.8424 19.9817 72.189 20.502C73.5661 21.0223 74.8209 21.6649 75.9533 22.4301C77.1162 23.1646 78.0803 24.098 78.8454 25.2303C79.6411 26.3627 80.0389 27.7858 80.0389 29.4996C80.0389 31.1523 79.7329 32.6059 79.1208 33.8607C78.5087 35.0849 77.6518 36.1254 76.55 36.9823C75.4483 37.8087 74.1476 38.4207 72.648 38.8186C71.1484 39.2471 69.5264 39.4613 67.7819 39.4613C66.619 39.4613 65.5325 39.3695 64.5226 39.1859C63.5433 39.0022 62.6251 38.7727 61.7682 38.4973C60.9419 38.2218 60.2074 37.9311 59.5647 37.625C58.922 37.319 58.4018 37.0589 58.0039 36.8446V28.3061Z" fill="black"/>
<path d="M81.6007 15.8655H88.0546L88.7432 18.6198H88.9268C90.5182 16.3551 93.089 15.2228 96.6391 15.2228C98.0469 15.2228 99.3322 15.4523 100.495 15.9114C101.689 16.3398 102.699 17.0284 103.525 17.9771C104.382 18.9259 105.04 20.1194 105.499 21.5578C105.958 22.9962 106.188 24.7254 106.188 26.7452C106.188 28.7039 105.927 30.479 105.407 32.0704C104.887 33.6312 104.137 34.9625 103.158 36.0642C102.178 37.166 100.985 38.0076 99.5771 38.5891C98.1693 39.1706 96.5626 39.4613 94.7569 39.4613C93.8082 39.4613 92.8748 39.3848 91.9566 39.2318C91.0385 39.1093 90.2734 38.8951 89.6613 38.5891V47.9999H83.6935V20.9151H81.6007V15.8655ZM94.8487 20.2725C93.6858 20.2725 92.6146 20.5632 91.6353 21.1447C90.6866 21.7262 90.0286 22.5984 89.6613 23.7613V33.3098C90.0898 33.6465 90.7019 33.9219 91.4976 34.1362C92.3239 34.3198 93.1502 34.4116 93.9765 34.4116C94.8334 34.4116 95.6291 34.2739 96.3636 33.9984C97.0981 33.6924 97.7408 33.218 98.2917 32.5753C98.8426 31.9327 99.271 31.1216 99.5771 30.1423C99.8831 29.163 100.036 27.9847 100.036 26.6075C100.036 24.5876 99.5465 23.0268 98.5671 21.9251C97.5878 20.8233 96.3483 20.2725 94.8487 20.2725Z" fill="black"/>
<path d="M107.088 27.342C107.088 25.414 107.379 23.7001 107.96 22.2005C108.541 20.7009 109.368 19.4308 110.439 18.3903C111.51 17.3498 112.78 16.5693 114.249 16.0491C115.749 15.4982 117.417 15.2228 119.253 15.2228C121.181 15.2228 122.895 15.5135 124.394 16.095C125.925 16.6765 127.21 17.5028 128.251 18.5739C129.291 19.6145 130.072 20.8845 130.592 22.3841C131.143 23.8838 131.418 25.5364 131.418 27.342C131.418 29.2701 131.127 30.9839 130.546 32.4835C129.964 33.9831 129.138 35.2532 128.067 36.2938C126.996 37.3343 125.71 38.13 124.211 38.6809C122.742 39.2012 121.089 39.4613 119.253 39.4613C117.325 39.4613 115.596 39.1706 114.066 38.5891C112.566 38.0076 111.296 37.1966 110.255 36.156C109.215 35.0849 108.419 33.7995 107.868 32.2999C107.348 30.8003 107.088 29.1477 107.088 27.342ZM113.239 27.342C113.239 28.352 113.377 29.2854 113.652 30.1423C113.928 30.9992 114.326 31.749 114.846 32.3917C115.366 33.0344 115.994 33.5394 116.728 33.9066C117.463 34.2433 118.304 34.4116 119.253 34.4116C121.028 34.4116 122.466 33.8454 123.568 32.7131C124.7 31.5807 125.267 29.7904 125.267 27.342C125.267 25.2303 124.746 23.5318 123.706 22.2464C122.665 20.9304 121.181 20.2725 119.253 20.2725C118.396 20.2725 117.6 20.4102 116.866 20.6856C116.131 20.9304 115.489 21.3436 114.938 21.9251C114.417 22.5066 114.004 23.2411 113.698 24.1286C113.392 25.0161 113.239 26.0873 113.239 27.342Z" fill="black"/>
<path d="M132.062 6.68419H140.444V25.0008H141.821L149.35 15.8655H156.373L147.1 26.3321L153.114 33.7689H155.358V38.8186H149.946L142.05 29.316H140.444V38.8186H134.476V11.7339H132.062V6.68419Z" fill="black"/>
<path d="M177.756 36.3856C177.358 36.7528 176.838 37.1201 176.195 37.4873C175.583 37.824 174.848 38.1453 173.991 38.4514C173.165 38.7574 172.247 39.0022 171.237 39.1859C170.227 39.3695 169.156 39.4613 168.024 39.4613C166.065 39.4613 164.305 39.1859 162.744 38.635C161.214 38.0841 159.913 37.2884 158.842 36.2479C157.771 35.1767 156.945 33.9066 156.363 32.4376C155.812 30.938 155.537 29.2395 155.537 27.342C155.537 25.3222 155.858 23.5624 156.501 22.0628C157.144 20.5326 158.016 19.2625 159.118 18.2526C160.25 17.2426 161.566 16.4928 163.066 16.0032C164.565 15.4829 166.187 15.2228 167.932 15.2228C169.095 15.2228 170.288 15.3758 171.512 15.6818C172.767 15.9879 173.915 16.5234 174.955 17.2885C175.996 18.0231 176.838 19.0177 177.48 20.2725C178.154 21.5272 178.49 23.1186 178.49 25.0467C178.49 26.3627 178.337 27.7858 178.031 29.316H161.505C161.535 30.2953 161.734 31.1216 162.102 31.7949C162.5 32.4682 163.004 33.0191 163.617 33.4476C164.259 33.876 164.978 34.1974 165.774 34.4116C166.6 34.5952 167.473 34.687 168.391 34.687C170.227 34.687 171.727 34.4728 172.89 34.0443C174.083 33.6159 175.047 33.0956 175.782 32.4835L177.756 36.3856ZM167.84 19.997C167.044 19.997 166.294 20.1041 165.591 20.3184C164.887 20.5326 164.244 20.8539 163.662 21.2824C163.112 21.6803 162.653 22.1852 162.285 22.7973C161.918 23.4094 161.704 24.098 161.643 24.8631H172.936C172.936 23.3635 172.507 22.1852 171.65 21.3283C170.824 20.4408 169.554 19.997 167.84 19.997Z" fill="black"/>
<path fill-rule="evenodd" clip-rule="evenodd" d="M1.14402 13.6705C2.54276 12.4381 4.67573 12.5729 5.90814 13.9717L11.8599 20.7267C13.3741 22.4452 14.4163 24.3868 15.2186 26.1983C16.116 28.2246 17.411 30.4895 19.0548 32.1975C20.6811 33.8873 22.4105 34.8033 24.3034 34.8033C26.6768 34.8033 28.1205 34.2585 29.1541 33.5962C30.2734 32.879 31.146 31.8855 32.262 30.4957C32.3525 30.3831 32.4457 30.2662 32.5417 30.1457C33.5263 28.9108 34.8072 27.3042 36.4952 26.0618C38.5049 24.5825 40.9809 23.6643 44.2186 23.6643C46.0828 23.6643 47.5941 25.1755 47.5941 27.0397C47.5941 28.9039 46.0828 30.4152 44.2186 30.4152C42.3931 30.4152 41.3249 30.8893 40.4971 31.4987C39.5584 32.1896 38.8163 33.1145 37.6944 34.5127C37.6391 34.5816 37.583 34.6516 37.5258 34.7227C36.4056 36.1177 34.9365 37.909 32.7963 39.2803C30.5704 40.7066 27.837 41.5542 24.3034 41.5542C19.9748 41.5542 16.6025 39.3849 14.1906 36.8788C11.7961 34.3907 10.1163 31.3488 9.04597 28.9321C8.38344 27.4362 7.67184 26.1852 6.79465 25.1896L0.84287 18.4346C-0.389544 17.0359 -0.254713 14.9029 1.14402 13.6705Z" fill="#06DFAB"/>
<path fill-rule="evenodd" clip-rule="evenodd" d="M33.5643 0.206407C35.315 0.846917 36.215 2.7854 35.5745 4.53613C35.3986 5.01696 35.1862 5.65945 34.9384 6.40911C34.1981 8.64826 33.1418 11.8436 31.7975 14.5432C30.8713 16.4034 29.6721 18.3433 28.0889 19.8534C26.4615 21.4058 24.2964 22.6165 21.6031 22.6165C16.9239 22.6165 13.1202 19.5731 10.5101 16.7323C7.79367 13.7759 5.70025 10.305 4.47179 8.08207C3.57009 6.45043 4.16183 4.39675 5.79347 3.49506C7.42511 2.59336 9.47878 3.1851 10.3805 4.81674C11.5148 6.8694 13.3032 9.79431 15.4812 12.1648C17.7655 14.651 19.8689 15.8656 21.6031 15.8656C22.1164 15.8656 22.6939 15.6699 23.4293 14.9684C24.209 14.2247 24.9928 13.0634 25.7543 11.5341C26.8647 9.30418 27.6453 6.94104 28.3534 4.7978C28.6536 3.88888 28.9408 3.01952 29.2346 2.21663C29.8751 0.465906 31.8136 -0.434104 33.5643 0.206407Z" fill="#9D04FF"/>
<path fill-rule="evenodd" clip-rule="evenodd" d="M40.0521 6.31033C41.7873 6.99199 42.6413 8.95117 41.9596 10.6863L38.2466 20.1376C37.5649 21.8727 35.6058 22.7267 33.8706 22.0451C32.1355 21.3634 31.2815 19.4042 31.9632 17.6691L35.6762 8.2178C36.3578 6.48268 38.317 5.62868 40.0521 6.31033Z" fill="#FFC619"/>
<circle cx="25.3161" cy="28.0174" r="4.05056" fill="#FE1B4E"/>
</svg>
